{"title":"The.Clearing(2004)1080p.BluRay.H264.AAC.Raven","uid":11228459,"size":1421969858,"categoryP":"video","categoryS":"hd___movies","magnet":"?xt=urn:btih:b9d3f36cf35c9c2dfc08f4b070d80f31879613ad&amp;dn=The.Clearing%282004%291080p.BluRay.H264.AAC.Raven&amp;tr=udp%3A%2F%2Ftracker.openbittorrent.com%3A80&amp;tr=udp%3A%2F%2Fopen.demonii.com%3A1337&amp;tr=udp%3A%2F%2Ftracker.coppersurfer.tk%3A6969&amp;tr=udp%3A%2F%2Fexodus.desync.com%3A6969","seeders":1,"leechers":0,"uploader":"Raven1969","files":-1,"time":1413485846,"description":"The.Clearing(2004)1080p.BluRay.H264.AAC.Raven.mp4\n\n\n\n\n\nEnglish, Spanish, Danish and Persian subs included.\n\n\n\nScreen images:\n\n\n &lt;a href=&quot;\nhttp://i.imgur.com/H9bJtrM.png&quot; rel=&quot;nofollow&quot; target=&quot;_NEW&quot;&gt;\nhttp://i.imgur.com/H9bJtrM.png&lt;/a&gt;\n\n &lt;a href=&quot;\nhttp://i.imgur.com/XNTCF5k.png&quot; rel=&quot;nofollow&quot; target=&quot;_NEW&quot;&gt;\nhttp://i.imgur.com/XNTCF5k.png&lt;/a&gt;\n\n &lt;a href=&quot;\nhttp://i.imgur.com/8wVvsG3.png&quot; rel=&quot;nofollow&quot; target=&quot;_NEW&quot;&gt;\nhttp://i.imgur.com/8wVvsG3.png&lt;/a&gt;\n\n &lt;a href=&quot;\nhttp://i.imgur.com/kMIo18t.png&quot; rel=&quot;nofollow&quot; target=&quot;_NEW&quot;&gt;\nhttp://i.imgur.com/kMIo18t.png&lt;/a&gt;\n\n &lt;a href=&quot;\nhttp://i.imgur.com/r5tB0OH.png&quot; rel=&quot;nofollow&quot; target=&quot;_NEW&quot;&gt;\nhttp://i.imgur.com/r5tB0OH.png&lt;/a&gt;\n\n &lt;a href=&quot;\nhttp://i.imgur.com/uEf4zuR.png&quot; rel=&quot;nofollow&quot; target=&quot;_NEW&quot;&gt;\nhttp://i.imgur.com/uEf4zuR.png&lt;/a&gt;\n\n &lt;a href=&quot;\nhttp://i.imgur.com/VEallTV.png&quot; rel=&quot;nofollow&quot; target=&quot;_NEW&quot;&gt;\nhttp://i.imgur.com/VEallTV.png&lt;/a&gt;\n\n\n\n\nStoryline:\n\nAs an executive is held captive by an employee, it's up to his wife to deliver the ransom.\nWayne and Eileen Hayes live the American Dream. Together they've raised two children and struggled to build a successful business from the ground up. But there have been sacrifices along the way. When Wayne is kidnapped by an ordinary man, Arnold Mack, and held for ransom in a remote forest, the couple's world is turned inside out. Eileen finds her home full of FBI agents, their life under scrutiny. While Wayne is engaged in the negotiation of his lifetime, Eileen works frantically with the FBI to secure his release. The terrifying ordeal causes Wayne and Eileen to reassess their marriage and come to a deeper sense of their commitment to each other. With each passing hour, the need and desire for Wayne to return home safely becomes ever more urgent.\n\n\nGeneral\nFormat                                   : MPEG-4\nFormat profile                           : Base Media\nCodec ID                                 : isom\nFile size                                : 1.32 GiB\nDuration                                 : 1h 34mn\nOverall bit rate mode                    : Variable\nOverall bit rate                         : 1 995 Kbps\nEncoded date                             : UTC 2014-10-16 16:27:38\nTagged date                              : UTC 2014-10-16 16:27:38\n\nVideo\nID                                       : 1\nFormat                                   : AVC\nFormat/Info                              : Advanced Video Codec\nFormat profile                           : &lt;a class=&quot;__cf_email__&quot; href=&quot;/cdn-cgi/l/email-protection&quot; data-cfemail=&quot;efa7868887afa3dbc1df&quot;&gt;[email&amp;#160;protected]&lt;/a&gt;&lt;script cf-hash='f9e31' type=&quot;text/javascript&quot;&gt;\n/* &lt;![CDATA[ */!function(){try{var t=&quot;currentScript&quot;in document?document.currentScript:function(){for(var t=document.getElementsByTagName(&quot;script&quot;),e=t.length;e--;)if(t[e].getAttribute(&quot;cf-hash&quot;))return t[e]}();if(t&amp;&amp;t.previousSibling){var e,r,n,i,c=t.previousSibling,a=c.getAttribute(&quot;data-cfemail&quot;);if(a){for(e=&quot;&quot;,r=parseInt(a.substr(0,2),16),n=2;a.length-n;n+=2)i=parseInt(a.substr(n,2),16)^r,e+=String.fromCharCode(i);e=document.createTextNode(e),c.parentNode.replaceChild(e,c)}}}catch(u){}}();/* ]]&gt; */&lt;/script&gt;\nFormat settings, CABAC                   : Yes\nFormat settings, ReFrames                : 4 frames\nCodec ID                                 : avc1\nCodec ID/Info                            : Advanced Video Coding\nDuration                                 : 1h 34mn\nBit rate                                 : 1 900 Kbps\nMaximum bit rate                         : 9 378 Kbps\nWidth                                    : 1 920 pixels\nHeight                                   : 1 040 pixels\nDisplay aspect ratio                     : 1.85:1\nFrame rate mode                          : Constant\nFrame rate                               : 23.976 fps\nColor space                              : YUV\nChroma subsampling                       : 4:2:0\nBit depth                                : 8 bits\nScan type                                : Progressive\nBits/(Pixel*Frame)                       : 0.040\nStream size                              : 1.25 GiB (95%)\nWriting library                          : x264 core 132 \nEncoded date                             : UTC 2014-10-16 16:27:38\nTagged date                              : UTC 2014-10-16 16:28:06\n\nAudio\nID                                       : 2\nFormat                                   : AAC\nFormat/Info                              : Advanced Audio Codec\nFormat profile                           : LC\nCodec ID                                 : 40\nDuration                                 : 1h 34mn\nBit rate mode                            : Variable\nBit rate                                 : 92.0 Kbps\nMaximum bit rate                         : 162 Kbps\nChannel(s)                               : 2 channels\nChannel positions                        : Front: L R\nSampling rate                            : 48.0 KHz\nCompression mode                         : Lossy\nStream size                              : 62.1 MiB (5%)\nEncoded date                             : UTC 2014-10-16 14:40:42\nTagged date                              : UTC 2014-10-16 16:28:06\n\n\n\nPLEASE  SEED FOR AS LONG AS POSSIBLE TO KEEP THE TORRENT ALIVE :-)","torrent":{"xt":"urn:btih:b9d3f36cf35c9c2dfc08f4b070d80f31879613ad","amp;dn":"The.Clearing%282004%291080p.BluRay.H264.AAC.Raven","amp;tr":["udp%3A%2F%2Ftracker.openbittorrent.com%3A80","udp%3A%2F%2Fopen.demonii.com%3A1337","udp%3A%2F%2Ftracker.coppersurfer.tk%3A6969","udp%3A%2F%2Fexodus.desync.com%3A6969"],"infoHash":"b9d3f36cf35c9c2dfc08f4b070d80f31879613ad","infoHashBuffer":{"type":"Buffer","data":[185,211,243,108,243,92,156,45,252,8,244,176,112,216,15,49,135,150,19,173]},"announce":[],"urlList":[]}}